<svg xmlns:xlink="http://www.w3.org/1999/xlink" font-size="16px" viewBox="0 0 48 48" fill="currentColor" xmlns="http://www.w3.org/2000/svg"   width="1"  height="1" ><path d="M0 5a5 5 0 015-5h38a5 5 0 015 5v38a5 5 0 01-5 5H5a5 5 0 01-5-5V5z" fill="#13BD90"></path><path fill-rule="evenodd" clip-rule="evenodd" d="M24 40.5c.88 0 14-11.43 14-19.1 0-7.68-6.27-13.9-14-13.9s-14 6.22-14 13.9c0 7.67 13.13 19.1 14 19.1zm0-14.76c2.9 0 5.25-2.34 5.25-5.21A5.23 5.23 0 0024 15.32a5.23 5.23 0 00-5.25 5.2A5.23 5.23 0 0024 25.75z" fill="#FFFFFF"></path></svg>